<svg width="23" height="23" viewBox="0 0 23 23" fill="none" xmlns="http://www.w3.org/2000/svg">
<g clip-path="url(#clip0_28001_22644)">
<g clip-path="url(#clip1_28001_22644)">
<g clip-path="url(#clip2_28001_22644)">
<path d="M20.2304 3.14844H3.11925C1.7693 3.14844 0.674805 4.24294 0.674805 5.59288V16.5929C0.674805 17.9428 1.7693 19.0373 3.11925 19.0373H20.2304C21.5803 19.0373 22.6748 17.9428 22.6748 16.5929V5.59288C22.6748 4.24294 21.5803 3.14844 20.2304 3.14844Z" fill="#003399"/>
<path d="M12.0042 6.02601L12.5231 5.64895H11.882L11.6834 5.03906L11.4854 5.64895H10.8444L11.3632 6.02601L11.1646 6.6359L11.6834 6.25884L12.2022 6.6359L12.0042 6.02601ZM12.0042 16.6184L12.5231 16.2413H11.882L11.6834 15.6315L11.4854 16.2413H10.8444L11.3632 16.6184L11.1646 17.2283L11.6834 16.8512L12.2022 17.2283L12.0042 16.6184ZM6.70835 11.3219L7.22719 10.9448H6.58552L6.38752 10.335L6.18891 10.9448H5.54785L6.06668 11.3219L5.86868 11.9318L6.38752 11.5547L6.90635 11.9318L6.70835 11.3219ZM7.38485 8.70328L7.90369 8.32623H7.26202L7.06402 7.71634L6.86602 8.32623H6.22435L6.74319 8.70328L6.54518 9.31317L7.06402 8.93612L7.58285 9.31317L7.38485 8.70328ZM7.38485 13.9705L7.90369 13.5934H7.26202L7.06402 12.9835L6.86602 13.5934H6.22435L6.74319 13.9705L6.54518 14.5803L7.06402 14.2033L7.58285 14.5803L7.38485 13.9705ZM9.3563 6.73551L9.87513 6.35845H9.23346L9.03546 5.74856L8.83746 6.35845H8.1958L8.71463 6.73551L8.51663 7.3454L9.03546 6.96834L9.5543 7.3454L9.3563 6.73551ZM9.3563 15.9431L9.87513 15.5661H9.23346L9.03546 14.9562L8.83746 15.5661H8.1958L8.71463 15.9431L8.51663 16.553L9.03546 16.1766L9.5543 16.553L9.3563 15.9431ZM16.6414 11.3219L16.1225 10.9448H16.7642L16.9622 10.335L17.1608 10.9448H17.8019L17.283 11.3219L17.481 11.9318L16.9622 11.5547L16.4434 11.9318L16.6414 11.3219ZM15.9649 8.70328L15.446 8.32623H16.0877L16.2857 7.71634L16.4837 8.32623H17.1254L16.6065 8.70328L16.8045 9.31317L16.2857 8.93612L15.7669 9.31317L15.9649 8.70328ZM15.9649 13.9705L15.446 13.5934H16.0877L16.2857 12.9835L16.4837 13.5934H17.1254L16.6065 13.9705L16.8045 14.5803L16.2857 14.2033L15.7669 14.5803L15.9649 13.9705ZM13.9934 6.73551L13.4746 6.35845H14.1162L14.3142 5.74856L14.5122 6.35845H15.1539L14.6351 6.73551L14.8331 7.3454L14.3142 6.96834L13.7954 7.3454L13.9934 6.73551ZM13.9934 15.9431L13.4746 15.5661H14.1162L14.3142 14.9562L14.5122 15.5661H15.1539L14.6351 15.9431L14.8331 16.553L14.3142 16.1766L13.7954 16.553L13.9934 15.9431Z" fill="#FFCC00"/>
</g>
</g>
</g>
<defs>
<clipPath id="clip0_28001_22644">
<rect width="22" height="22" fill="white" transform="translate(0.674805 0.09375)"/>
</clipPath>
<clipPath id="clip1_28001_22644">
<rect width="22" height="22" fill="white" transform="translate(0.674805 0.09375)"/>
</clipPath>
<clipPath id="clip2_28001_22644">
<rect width="22" height="22" fill="white" transform="translate(0.674805 0.09375)"/>
</clipPath>
</defs>
</svg>
