<svg width="17" height="17" viewBox="0 0 17 17" fill="none" xmlns="http://www.w3.org/2000/svg">
<g clip-path="url(#clip0_30001_807)">
<g clip-path="url(#clip1_30001_807)">
<g clip-path="url(#clip2_30001_807)">
<path d="M0.109863 12.0508V12.265C0.109863 13.2468 0.905863 14.0428 1.88764 14.0428H14.3321C15.3139 14.0428 16.1099 13.2468 16.1099 12.265V12.0508H0.109863Z" fill="#A7122D"/>
<path d="M0.109863 10.123H16.1099V12.1164H0.109863V10.123Z" fill="#EEEEEE"/>
<path d="M0.109863 6.27148H16.1099V10.1919H0.109863V6.27148Z" fill="#292648"/>
<path d="M0.109863 4.3457H16.1099V6.33904H0.109863V4.3457Z" fill="#EEEEEE"/>
<path d="M0.109863 4.41406V4.26606C0.109863 3.28428 0.905863 2.48828 1.88764 2.48828H14.3321C15.3139 2.48828 16.1099 3.28428 16.1099 4.26606V4.41406H0.109863Z" fill="#A7122D"/>
</g>
</g>
</g>
<defs>
<clipPath id="clip0_30001_807">
<rect width="16" height="16" fill="white" transform="translate(0.109863 0.265625)"/>
</clipPath>
<clipPath id="clip1_30001_807">
<rect width="16" height="16" fill="white" transform="translate(0.109863 0.265625)"/>
</clipPath>
<clipPath id="clip2_30001_807">
<rect width="16" height="16" fill="white" transform="translate(0.109863 0.265625)"/>
</clipPath>
</defs>
</svg>
