<svg width="23" height="23" viewBox="0 0 23 23" fill="none" xmlns="http://www.w3.org/2000/svg">
<g clip-path="url(#clip0_28001_22639)">
<path d="M11.6279 22.4258C17.7031 22.4258 22.6279 17.5009 22.6279 11.4258C22.6279 5.35065 17.7031 0.425781 11.6279 0.425781C5.5528 0.425781 0.62793 5.35065 0.62793 11.4258C0.62793 17.5009 5.5528 22.4258 11.6279 22.4258Z" fill="#88C9F9"/>
<path d="M19.0409 14.937C18.4194 14.6987 18.53 14.7855 18.1468 13.9709C17.7636 13.1569 17.5314 12.8947 16.6697 12.7994C15.8075 12.7046 15.8399 12.7719 15.6003 12.341C15.3607 11.9096 14.3891 12.4578 13.767 12.6979C13.143 12.9375 13.297 13.4594 13.1051 13.4105C12.9126 13.3628 12.4286 13.2388 11.9483 12.8562C11.4692 12.4724 12.3046 12.173 12.5447 11.934C12.7849 11.6939 12.0925 11.8246 11.8524 11.6798C11.6122 11.5368 11.1826 11.9676 10.7994 11.5833C10.4156 11.2001 10.6558 10.625 10.6081 10.1459C10.5599 9.6662 11.2302 9.57087 11.6617 9.47493C12.0925 9.37959 12.4274 9.47554 12.4274 10.05C12.4274 10.625 12.9548 10.8169 12.8112 10.1453C12.6676 9.4737 12.9548 9.28304 13.1473 8.94754C13.3386 8.61204 13.6741 8.13231 14.1049 7.41365C14.5364 6.69498 14.8242 7.02987 15.351 7.0812C15.8784 7.13315 16.022 7.03048 16.4051 7.07876C16.7871 7.12704 16.4051 6.59965 16.5494 6.07287C16.6924 5.54609 17.2197 5.64143 17.7477 5.78565C18.2745 5.92926 17.2197 5.11404 17.0285 4.6832C16.836 4.25176 16.3092 4.6832 15.9749 3.96454C15.637 3.24587 15.1658 2.78081 14.7344 2.71665C14.3029 2.65187 14.8719 3.62965 14.5364 4.15643C14.1996 4.6832 13.6839 4.6007 13.1552 4.6007C12.6291 4.6007 12.1402 4.15643 12.524 3.48543C12.9065 2.81504 13.638 2.88409 14.0212 2.30904C14.405 1.73459 12.6584 1.78715 12.0351 1.59587C11.4117 1.40398 10.6637 1.40581 10.041 1.88493C9.41769 2.36343 8.08485 2.51315 7.55747 2.70443C7.03069 2.8957 6.93597 2.38665 6.84063 2.00287C6.79785 1.83237 6.60352 1.77859 6.32974 1.7847C4.97308 2.5327 3.79791 3.56426 2.86719 4.79198C3.01202 5.28515 3.71358 4.67648 3.85108 4.53898C3.99469 4.39537 4.71335 4.58726 4.80869 5.11404C4.90463 5.64081 4.85697 6.21709 4.66569 6.6962C4.4738 7.1747 5.1448 7.8457 5.52797 8.5167C5.91174 9.18831 6.34258 9.1877 6.53447 9.1877C6.72574 9.1877 7.82819 9.61915 7.77991 10.1459C7.73224 10.6733 8.78641 11.1518 9.21785 11.4873C9.6493 11.824 9.92185 12.1546 10.4816 12.2512C11.042 12.3478 11.6971 13.2638 11.9844 13.3604C12.205 13.4337 12.5784 13.7863 12.8039 13.8957C12.5075 14.2709 11.9336 15.0415 11.9336 15.3966C11.9336 15.8769 12.56 16.6316 12.7996 16.8229C13.0385 17.0136 13.7266 17.159 13.869 17.6375C14.0132 18.1166 13.7688 19.7294 13.3386 20.1602C12.9059 20.591 12.7489 21.6098 12.7489 21.6098C12.7489 21.6098 12.901 21.9404 13.4107 21.6098C13.9741 21.2449 14.9177 20.206 15.2947 19.9799C16.0134 19.5479 16.7119 19.0235 17.3829 18.4014C18.0539 17.7787 17.8107 17.3424 18.1468 16.7209C18.4823 16.0981 18.9162 16.1263 19.4906 15.6007C20.0663 15.0727 19.6642 15.1772 19.0409 14.937Z" fill="#5C913B"/>
</g>
<defs>
<clipPath id="clip0_28001_22639">
<rect width="22" height="22" fill="white" transform="translate(0.62793 0.425781)"/>
</clipPath>
</defs>
</svg>
