<svg width="23" height="23" viewBox="0 0 23 23" fill="none" xmlns="http://www.w3.org/2000/svg">
<g clip-path="url(#clip0_28001_22627)">
<g clip-path="url(#clip1_28001_22627)">
<g clip-path="url(#clip2_28001_22627)">
<path d="M11.6291 22.0938C2.48812 22.0938 1.24023 13.5382 1.24023 11.0938H22.018C22.018 12.316 20.8215 22.0938 11.6291 22.0938Z" fill="#CCD6DD"/>
<path d="M22.018 10.5157C22.018 13.7032 17.3668 16.287 11.6291 16.287C5.8914 16.287 1.24023 13.7026 1.24023 10.5157C1.24023 7.32813 5.8914 5.35547 11.6291 5.35547C17.3668 5.35486 22.018 7.32813 22.018 10.5157Z" fill="#99AAB5"/>
<path d="M12.5452 20.2609H11.0175C10.8488 20.2609 10.7119 20.124 10.7119 19.9554C10.7119 19.7867 10.8488 19.6498 11.0175 19.6498H12.2397V17.8165H9.79525V18.4276H11.6286C11.7972 18.4276 11.9341 18.5645 11.9341 18.7331C11.9341 18.9018 11.7972 19.0387 11.6286 19.0387H9.48969C9.32102 19.0387 9.18414 18.9018 9.18414 18.7331V17.5109C9.18414 17.3422 9.32102 17.2054 9.48969 17.2054H12.5452C12.7139 17.2054 12.8508 17.3422 12.8508 17.5109V19.9554C12.8508 20.124 12.7139 20.2609 12.5452 20.2609ZM15.9064 19.6498C15.7854 19.6498 15.6705 19.5771 15.6228 19.4573C15.5599 19.3009 15.6356 19.123 15.7927 19.0607L17.1225 18.5284L17.0827 17.154L14.6841 17.7499V18.3298C15.1327 18.2039 15.8807 17.9919 16.4307 17.8293C16.5908 17.7829 16.7625 17.8733 16.8102 18.0359C16.8579 18.1978 16.7656 18.3677 16.6036 18.4154C15.7615 18.6641 14.4605 19.0277 14.4605 19.0277C14.3664 19.0534 14.2698 19.0344 14.1928 18.977C14.1176 18.9189 14.073 18.8285 14.073 18.7331V17.5109C14.073 17.371 14.1684 17.2481 14.3052 17.2145L17.3034 16.4696C17.3914 16.4476 17.4885 16.4671 17.5612 16.5227C17.6352 16.579 17.6792 16.6645 17.6822 16.7574L17.7397 18.724C17.7434 18.8523 17.667 18.969 17.5472 19.0167L16.0194 19.6278C15.9827 19.6425 15.9442 19.6498 15.9064 19.6498ZM18.701 17.9925C18.6325 17.9925 18.5781 17.9741 18.525 17.9448C18.4284 17.891 18.3508 17.7554 18.3508 17.6447V16.0791C18.3508 15.966 18.4137 15.8627 18.5134 15.8096C18.8739 15.6183 19.295 15.3659 19.6366 15.1618C19.8749 15.0194 20.0754 14.899 20.1933 14.8361C20.2844 14.7884 20.3944 14.789 20.4842 14.8379C20.5746 14.8874 20.6339 14.9791 20.6419 15.0824C20.6626 15.35 20.5728 16.0265 20.5539 16.1597C20.541 16.2532 20.4854 16.3364 20.4029 16.3834L19.6677 16.8039C19.5223 16.8845 19.3347 16.8369 19.2504 16.6902C19.1666 16.5441 19.2174 16.3571 19.364 16.2728L19.9672 15.9281C19.9782 15.8426 19.9886 15.7491 19.999 15.6568L19.9501 15.6861C19.6506 15.8652 19.2913 16.0809 18.9619 16.2618V17.2549C19.0676 17.1974 19.2106 17.1149 19.4044 16.9939L19.6115 17.2255L19.7276 17.5134C19.1477 17.8721 18.877 17.9925 18.701 17.9925ZM7.88553 19.8215C7.85436 19.8215 7.82319 19.8166 7.79264 19.8075L5.82547 19.1774C5.66475 19.1255 5.57614 18.9537 5.62747 18.793C5.6788 18.6317 5.85175 18.5461 6.01125 18.595L7.59097 19.101L7.63069 17.6612L5.88536 17.1504L5.86947 17.5995L6.83808 17.9277C6.99758 17.9821 7.08314 18.155 7.02936 18.3151C6.97497 18.4752 6.80203 18.559 6.64191 18.5064L5.45758 18.1055C5.32986 18.0621 5.24553 17.9399 5.25041 17.8055L5.2883 16.736C5.29136 16.6419 5.33841 16.5539 5.4148 16.4989C5.49119 16.4433 5.58836 16.4268 5.67941 16.4537L8.02853 17.1412C8.16175 17.1797 8.25158 17.3044 8.24791 17.4425L8.19047 19.5239C8.18802 19.6199 8.13975 19.7097 8.06153 19.7653C8.01019 19.8026 7.94786 19.8215 7.88553 19.8215ZM4.19991 18.122C4.1443 18.122 4.0893 18.1074 4.0398 18.0768L3.19953 17.561C3.05591 17.4724 3.01069 17.2848 3.09869 17.1406C3.18669 16.997 3.3743 16.9505 3.51914 17.0404L3.89069 17.2683L3.8858 16.2765L3.07303 15.8181V16.0779L3.52708 16.3516C3.6713 16.439 3.71775 16.626 3.63097 16.7709C3.54358 16.9151 3.35658 16.9609 3.21114 16.8747L2.6098 16.5117C2.51814 16.4567 2.46191 16.3571 2.46191 16.2508V15.2962C2.46191 15.1875 2.51936 15.0872 2.61347 15.0322C2.70697 14.9772 2.82308 14.976 2.9178 15.0298L4.34047 15.8316C4.4358 15.8854 4.49508 15.9862 4.49569 16.0962L4.50547 17.8146C4.50608 17.9259 4.44619 18.0285 4.35025 18.0823C4.30319 18.1092 4.25125 18.122 4.19991 18.122Z" fill="#EA596E"/>
<path d="M11.6286 15.372C16.6912 15.372 20.7952 13.4567 20.7952 11.0942C20.7952 8.73163 16.6912 6.81641 11.6286 6.81641C6.56597 6.81641 2.46191 8.73163 2.46191 11.0942C2.46191 13.4567 6.56597 15.372 11.6286 15.372Z" fill="#FFAC33"/>
<path d="M14.0735 14.7591C13.3523 14.7591 12.7767 14.6393 12.3617 14.4022C11.893 14.1346 11.6235 13.7037 11.6235 13.2209C11.6241 12.0873 13.0541 11.0924 14.6846 11.0924C15.0225 11.0924 15.2957 11.3662 15.2957 11.7036C15.2957 12.0415 15.0225 12.3147 14.6846 12.3147C13.5406 12.3147 12.8463 12.9441 12.8463 13.2209C12.8463 13.2674 12.9392 13.3242 12.968 13.3407C13.0963 13.4141 13.4104 13.5369 14.0735 13.5369C15.5426 13.5369 17.129 12.6025 17.129 11.0924C17.129 10.6518 16.5546 10.3695 16.3083 10.2687C15.0738 9.76389 13.0749 9.91484 12.0647 10.9433C11.1841 11.8398 9.7474 12.1387 8.22085 11.7384C7.28096 11.4927 6.19257 10.9207 5.95668 10.0511C5.8369 9.60806 5.96157 9.17356 6.30807 8.82645C7.70935 7.42578 10.328 7.42578 12.2401 7.42578C12.5781 7.42578 12.8512 7.69956 12.8512 8.03689C12.8512 8.37423 12.5781 8.648 12.2401 8.648C10.5418 8.648 8.21535 8.648 7.17218 9.69117C7.1404 9.72356 7.13307 9.74128 7.13307 9.74128C7.14713 9.83723 7.48201 10.2082 8.23735 10.4679C9.1974 10.7985 10.4838 10.8095 11.1933 10.0872C12.6105 8.64434 15.1417 8.47139 16.7715 9.1375C17.7756 9.54817 18.3512 10.2607 18.3512 11.0924C18.3512 13.3572 16.1305 14.7591 14.0735 14.7591ZM9.79568 14.7591C5.14818 14.7591 3.68457 11.4249 3.68457 10.4813C3.68457 10.144 3.95835 9.87023 4.29568 9.87023C4.6324 9.87023 4.90557 10.1422 4.90679 10.4783C4.92879 10.8834 5.94629 13.5369 9.79568 13.5369C10.133 13.5369 10.4068 13.8101 10.4068 14.148C10.4068 14.4859 10.133 14.7591 9.79568 14.7591Z" fill="#FFD983"/>
<path d="M22.0737 1.96075L8.01512 2.50219C7.67901 2.53214 7.38201 2.28464 7.35206 1.94791C7.32212 1.6118 7.56962 1.3148 7.90573 1.28486L21.91 0.135358C22.2467 0.104802 22.5431 0.352913 22.5736 0.689024C22.603 1.02452 22.4105 1.93019 22.0737 1.96075ZM22.0175 4.98391L7.96195 4.3728C7.62462 4.3728 7.35084 4.09902 7.35084 3.76169C7.35084 3.42436 7.62462 3.15058 7.96195 3.15058H22.0175C22.3555 3.15058 22.6286 3.42436 22.6286 3.76169C22.6286 4.09902 22.3555 4.98391 22.0175 4.98391Z" fill="#AA695B"/>
<path d="M9.18435 9.26042C8.84702 9.26042 8.57324 8.98664 8.57324 8.64931V1.31597C8.57324 0.978639 8.84702 0.704861 9.18435 0.704861C9.52169 0.704861 9.79546 0.978639 9.79546 1.31597V8.64931C9.79546 8.98664 9.52169 9.26042 9.18435 9.26042ZM11.6288 10.4826C11.2915 10.4826 11.0177 10.2089 11.0177 9.87153V0.704861C11.0177 0.367528 11.2915 0.09375 11.6288 0.09375C11.9661 0.09375 12.2399 0.367528 12.2399 0.704861V9.87153C12.2399 10.2089 11.9661 10.4826 11.6288 10.4826Z" fill="#FFD983"/>
</g>
</g>
</g>
<defs>
<clipPath id="clip0_28001_22627">
<rect width="22" height="22" fill="white" transform="translate(0.628906 0.09375)"/>
</clipPath>
<clipPath id="clip1_28001_22627">
<rect width="22" height="22" fill="white" transform="translate(0.628906 0.09375)"/>
</clipPath>
<clipPath id="clip2_28001_22627">
<rect width="22" height="22" fill="white" transform="translate(0.628906 0.09375)"/>
</clipPath>
</defs>
</svg>
