<svg width="68" height="49" viewBox="0 0 68 49" fill="none" xmlns="http://www.w3.org/2000/svg">
<path d="M66.52 8.54078C65.74 5.61078 64.03 3.13078 61.1 2.35078C55.79 0.930781 34 0.800781 34 0.800781C34 0.800781 12.21 0.930781 6.9 2.35078C3.97 3.13078 2.27 5.61078 1.48 8.54078C0.0600001 13.8508 0 24.8008 0 24.8008C0 24.8008 0.0600001 35.7508 1.48 41.0608C2.26 43.9908 3.97 46.4708 6.9 47.2508C12.21 48.6708 34 48.8008 34 48.8008C34 48.8008 55.79 48.6708 61.1 47.2508C64.03 46.4708 65.74 43.9908 66.52 41.0608C67.94 35.7508 68 24.8008 68 24.8008C68 24.8008 67.94 13.8508 66.52 8.54078Z" fill="#FF0000"/>
<path d="M45 24.8008L27 14.8008V34.8008" fill="white"/>
</svg>
