<svg width="20" height="29" viewBox="0 0 20 29" fill="none" xmlns="http://www.w3.org/2000/svg">
<g clip-path="url(#clip0_28001_21100)">
<path d="M9.18127 6.61955L7.11753 10.9893L2.51096 11.6899C2.26528 11.7145 2.05952 11.8374 1.89368 12.0587C1.72784 12.2799 1.648 12.5319 1.65414 12.8146C1.66028 13.0974 1.76162 13.337 1.95817 13.5337L5.2749 16.9078L4.501 21.757C4.45186 22.0274 4.501 22.2702 4.64841 22.4853C4.79582 22.7004 4.99543 22.8417 5.24726 22.9093C5.49909 22.9769 5.73556 22.9493 5.95667 22.8264L10.1026 20.6691L14.2485 22.8264C14.4942 22.9493 14.7429 22.9769 14.9948 22.9093C15.2466 22.8417 15.4401 22.7004 15.5752 22.4853C15.7103 22.2702 15.7533 22.0274 15.7042 21.757L14.9487 16.9078L18.247 13.5337C18.4435 13.337 18.5449 13.1035 18.551 12.8331C18.5572 12.5627 18.4804 12.3168 18.3207 12.0956C18.161 11.8743 17.9583 11.7391 17.7126 11.6899L13.1061 10.9893L11.0239 6.61955C10.9011 6.37371 10.7168 6.2047 10.4711 6.11251C10.2254 6.02032 9.97974 6.02032 9.73406 6.11251C9.48837 6.2047 9.30411 6.37371 9.18127 6.61955Z" fill="#022555"/>
</g>
<defs>
<clipPath id="clip0_28001_21100">
<rect width="18.4378" height="27.6221" fill="white" transform="translate(0.890625 0.644531)"/>
</clipPath>
</defs>
</svg>
