<svg width="20" height="29" viewBox="0 0 20 29" fill="none" xmlns="http://www.w3.org/2000/svg">
<g clip-path="url(#clip0_28001_21106)">
<path d="M9.07709 6.61955L7.01205 10.9893L2.40261 11.6899C2.15677 11.7145 1.95088 11.8374 1.78494 12.0587C1.619 12.2799 1.53911 12.5319 1.54525 12.8146C1.5514 13.0974 1.6528 13.337 1.84947 13.5337L5.16828 16.9078L4.39389 21.757C4.34472 22.0274 4.39389 22.2702 4.54139 22.4853C4.68889 22.7004 4.88864 22.8417 5.14062 22.9093C5.3926 22.9769 5.62922 22.9493 5.85047 22.8264L9.99897 20.6691L14.1475 22.8264C14.3933 22.9493 14.6422 22.9769 14.8942 22.9093C15.1462 22.8417 15.3398 22.7004 15.475 22.4853C15.6102 22.2702 15.6532 22.0274 15.6041 21.757L14.8481 16.9078L18.1485 13.5337C18.3451 13.337 18.4466 13.1035 18.4527 12.8331C18.4588 12.5627 18.382 12.3168 18.2222 12.0956C18.0624 11.8743 17.8596 11.7391 17.6138 11.6899L13.0043 10.9893L10.9209 6.61955C10.7979 6.37371 10.6136 6.2047 10.3677 6.11251C10.1219 6.02032 9.87606 6.02032 9.63022 6.11251C9.38438 6.2047 9.2 6.37371 9.07709 6.61955Z" fill="#022555"/>
</g>
<defs>
<clipPath id="clip0_28001_21106">
<rect width="18.4378" height="27.6221" fill="white" transform="translate(0.78125 0.644531)"/>
</clipPath>
</defs>
</svg>
