<svg width="19" height="29" viewBox="0 0 19 29" fill="none" xmlns="http://www.w3.org/2000/svg">
<g clip-path="url(#clip0_28001_21094)">
<path d="M8.29681 6.61955L6.23178 10.9893L1.62233 11.6899C1.3765 11.7145 1.17061 11.8374 1.00467 12.0587C0.838729 12.2799 0.758832 12.5319 0.764978 12.8146C0.771124 13.0974 0.872531 13.337 1.0692 13.5337L4.388 16.9078L3.61362 21.757C3.56445 22.0274 3.61362 22.2702 3.76112 22.4853C3.90862 22.7004 4.10836 22.8417 4.36035 22.9093C4.61233 22.9769 4.84895 22.9493 5.0702 22.8264L9.2187 20.6691L13.3672 22.8264C13.613 22.9493 13.8619 22.9769 14.1139 22.9093C14.3659 22.8417 14.5595 22.7004 14.6947 22.4853C14.8299 22.2702 14.873 22.0274 14.8238 21.757L14.0678 16.9078L17.3682 13.5337C17.5649 13.337 17.6663 13.1035 17.6724 12.8331C17.6786 12.5627 17.6017 12.3168 17.442 12.0956C17.2822 11.8743 17.0793 11.7391 16.8335 11.6899L12.2241 10.9893L10.1406 6.61955C10.0177 6.37371 9.83329 6.2047 9.58746 6.11251C9.34162 6.02032 9.09578 6.02032 8.84995 6.11251C8.60411 6.2047 8.41973 6.37371 8.29681 6.61955Z" fill="#022555"/>
</g>
<defs>
<clipPath id="clip0_28001_21094">
<rect width="18.4378" height="27.6221" fill="white" transform="translate(0 0.644531)"/>
</clipPath>
</defs>
</svg>
