<svg width="17" height="25" viewBox="0 0 17 25" fill="none" xmlns="http://www.w3.org/2000/svg">
<g clip-path="url(#clip0_28001_19769)">
<path d="M7.82717 5.72913L6.03293 9.52587L2.02793 10.1346C1.81433 10.156 1.63544 10.2628 1.49126 10.455C1.34708 10.6473 1.27766 10.8662 1.283 11.1118C1.28834 11.3575 1.37645 11.5657 1.54733 11.7366L4.43093 14.6683L3.75809 18.8815C3.71537 19.1165 3.75809 19.3274 3.88625 19.5143C4.01441 19.7012 4.18796 19.8241 4.4069 19.8828C4.62584 19.9415 4.83143 19.9175 5.02367 19.8107L8.62817 17.9364L12.2327 19.8107C12.4463 19.9175 12.6625 19.9415 12.8815 19.8828C13.1004 19.8241 13.2686 19.7012 13.3861 19.5143C13.5036 19.3274 13.541 19.1165 13.4983 18.8815L12.8414 14.6683L15.709 11.7366C15.8799 11.5657 15.968 11.3628 15.9733 11.1279C15.9787 10.8929 15.9119 10.6793 15.7731 10.4871C15.6343 10.2948 15.458 10.1773 15.2444 10.1346L11.2394 9.52587L9.42917 5.72913C9.32237 5.51553 9.16217 5.36868 8.94857 5.28858C8.73497 5.20848 8.52137 5.20848 8.30777 5.28858C8.09417 5.36868 7.93397 5.51553 7.82717 5.72913Z" fill="#022555"/>
</g>
<defs>
<clipPath id="clip0_28001_19769">
<rect width="16.02" height="24" fill="white" transform="translate(0.618164 0.539062)"/>
</clipPath>
</defs>
</svg>
