<svg width="20" height="29" viewBox="0 0 20 29" fill="none" xmlns="http://www.w3.org/2000/svg">
<g clip-path="url(#clip0_28001_21112)">
<path d="M8.97162 6.61955L6.90658 10.9893L2.29714 11.6899C2.0513 11.7145 1.84541 11.8374 1.67947 12.0587C1.51353 12.2799 1.43364 12.5319 1.43978 12.8146C1.44593 13.0974 1.54734 13.337 1.74401 13.5337L5.06281 16.9078L4.28842 21.757C4.23925 22.0274 4.28842 22.2702 4.43592 22.4853C4.58342 22.7004 4.78317 22.8417 5.03515 22.9093C5.28713 22.9769 5.52375 22.9493 5.745 22.8264L9.89351 20.6691L14.042 22.8264C14.2878 22.9493 14.5368 22.9769 14.7887 22.9093C15.0407 22.8417 15.2343 22.7004 15.3695 22.4853C15.5047 22.2702 15.5478 22.0274 15.4986 21.757L14.7426 16.9078L18.043 13.5337C18.2397 13.337 18.3411 13.1035 18.3472 12.8331C18.3534 12.5627 18.2766 12.3168 18.1168 12.0956C17.957 11.8743 17.7541 11.7391 17.5083 11.6899L12.8989 10.9893L10.8154 6.61955C10.6925 6.37371 10.5081 6.2047 10.2623 6.11251C10.0164 6.02032 9.77059 6.02032 9.52475 6.11251C9.27891 6.2047 9.09453 6.37371 8.97162 6.61955Z" fill="#022555"/>
</g>
<defs>
<clipPath id="clip0_28001_21112">
<rect width="18.4378" height="27.6221" fill="white" transform="translate(0.671875 0.644531)"/>
</clipPath>
</defs>
</svg>
