<svg width="17" height="25" viewBox="0 0 17 25" fill="none" xmlns="http://www.w3.org/2000/svg">
<g clip-path="url(#clip0_28001_19775)">
<path d="M7.84262 5.72913L6.0495 9.52587L2.047 10.1346C1.83353 10.156 1.65475 10.2628 1.51066 10.455C1.36657 10.6473 1.2972 10.8662 1.30253 11.1118C1.30787 11.3575 1.39592 11.5657 1.5667 11.7366L4.4485 14.6683L3.77608 18.8815C3.73338 19.1165 3.77608 19.3274 3.90416 19.5143C4.03224 19.7012 4.20568 19.8241 4.42448 19.8828C4.64329 19.9415 4.84875 19.9175 5.04087 19.8107L8.64312 17.9364L12.2454 19.8107C12.4588 19.9175 12.675 19.9415 12.8938 19.8828C13.1126 19.8241 13.2807 19.7012 13.3981 19.5143C13.5155 19.3274 13.5529 19.1165 13.5102 18.8815L12.8537 14.6683L15.7195 11.7366C15.8903 11.5657 15.9784 11.3628 15.9837 11.1279C15.989 10.8929 15.9223 10.6793 15.7836 10.4871C15.6448 10.2948 15.4687 10.1773 15.2552 10.1346L11.2527 9.52587L9.44362 5.72913C9.33688 5.51553 9.17678 5.36868 8.96332 5.28858C8.74985 5.20848 8.53638 5.20848 8.32292 5.28858C8.10945 5.36868 7.94935 5.51553 7.84262 5.72913Z" fill="#022555"/>
</g>
<defs>
<clipPath id="clip0_28001_19775">
<rect width="16.02" height="24" fill="white" transform="translate(0.638184 0.539062)"/>
</clipPath>
</defs>
</svg>
