<svg width="19" height="29" viewBox="0 0 19 29" fill="none" xmlns="http://www.w3.org/2000/svg">
<g clip-path="url(#clip0_28001_21118)">
<g clip-path="url(#clip1_28001_21118)">
<path d="M8.85022 6.61955L6.78647 10.9893L2.1799 11.6899C1.93422 11.7145 1.72846 11.8374 1.56262 12.0587C1.39679 12.2799 1.31694 12.5319 1.32308 12.8146C1.32923 13.0974 1.43057 13.337 1.62712 13.5337L4.94385 16.9078L4.16994 21.757C4.12081 22.0274 4.16994 22.2702 4.31735 22.4853C4.46476 22.7004 4.66438 22.8417 4.91621 22.9093C5.16803 22.9769 5.4045 22.9493 5.62562 22.8264L9.77153 20.6691L13.9174 22.8264C14.1631 22.9493 14.4119 22.9769 14.6637 22.9093C14.9155 22.8417 15.109 22.7004 15.2441 22.4853C15.3793 22.2702 15.4223 22.0274 15.3731 21.757L14.6176 16.9078L17.9159 13.5337C18.1125 13.337 18.2138 13.1035 18.22 12.8331C18.2261 12.5627 18.1493 12.3168 17.9896 12.0956C17.83 11.8743 17.6273 11.7391 17.3816 11.6899L12.775 10.9893L10.6928 6.61955C10.57 6.37371 10.3857 6.2047 10.1401 6.11251C9.89437 6.02032 9.64869 6.02032 9.403 6.11251C9.15732 6.2047 8.97306 6.37371 8.85022 6.61955Z" fill="#022555"/>
</g>
</g>
<defs>
<clipPath id="clip0_28001_21118">
<rect width="18.4378" height="27.6221" fill="white" transform="translate(0.562012 0.644531)"/>
</clipPath>
<clipPath id="clip1_28001_21118">
<rect width="18.4263" height="27.6221" fill="white" transform="matrix(1 0 0 -1 0.561035 28.2676)"/>
</clipPath>
</defs>
</svg>
