<svg width="17" height="17" viewBox="0 0 17 17" fill="none" xmlns="http://www.w3.org/2000/svg">
<path d="M7.84373 1.73902L6.05285 5.53102L2.05534 6.13902C1.84214 6.16036 1.66359 6.26702 1.51968 6.45902C1.37577 6.65102 1.30648 6.86969 1.31181 7.11502C1.31714 7.36036 1.40508 7.56836 1.57564 7.73902L4.45385 10.667L3.78227 14.875C3.73963 15.1097 3.78227 15.3204 3.91019 15.507C4.03811 15.6937 4.21133 15.8164 4.42986 15.875C4.64839 15.9337 4.8536 15.9097 5.04548 15.803L8.64323 13.931L12.241 15.803C12.4542 15.9097 12.67 15.9337 12.8886 15.875C13.1071 15.8164 13.275 15.6937 13.3923 15.507C13.5095 15.3204 13.5468 15.1097 13.5042 14.875L12.8486 10.667L15.7108 7.73902C15.8814 7.56836 15.9693 7.36569 15.9747 7.13102C15.98 6.89636 15.9134 6.68302 15.7748 6.49102C15.6362 6.29902 15.4603 6.18169 15.2471 6.13902L11.2496 5.53102L9.44273 1.73902C9.33613 1.52569 9.17623 1.37902 8.96303 1.29902C8.74983 1.21902 8.53663 1.21902 8.32343 1.29902C8.11023 1.37902 7.95033 1.52569 7.84373 1.73902Z" fill="#CCD6DF"/>
</svg>
