<svg width="19" height="19" viewBox="0 0 19 19" fill="none" xmlns="http://www.w3.org/2000/svg">
<g clip-path="url(#clip0_28001_21121)">
<path d="M8.85107 1.62821L6.78991 5.99251L2.18909 6.69227C1.94371 6.71682 1.73821 6.83959 1.57258 7.06057C1.40695 7.28154 1.3272 7.53321 1.33334 7.81557C1.33947 8.09793 1.44069 8.33732 1.63699 8.53375L4.94958 11.9036L4.17664 16.7467C4.12757 17.0168 4.17664 17.2593 4.32387 17.4741C4.47109 17.689 4.67046 17.8301 4.92197 17.8977C5.17349 17.9652 5.40966 17.9376 5.6305 17.8148L9.77124 15.6603L13.912 17.8148C14.1573 17.9376 14.4058 17.9652 14.6573 17.8977C14.9088 17.8301 15.1021 17.689 15.237 17.4741C15.372 17.2593 15.4149 17.0168 15.3658 16.7467L14.6113 11.9036L17.9055 8.53375C18.1018 8.33732 18.203 8.10407 18.2091 7.83399C18.2153 7.5639 18.1386 7.31837 17.9791 7.0974C17.8196 6.87642 17.6172 6.74138 17.3718 6.69227L12.771 5.99251L10.6914 1.62821C10.5687 1.38268 10.3847 1.21388 10.1393 1.12181C9.89392 1.02973 9.64855 1.02973 9.40317 1.12181C9.15779 1.21388 8.97376 1.38268 8.85107 1.62821Z" fill="#CCD6DF"/>
</g>
<defs>
<clipPath id="clip0_28001_21121">
<rect width="18.4263" height="18.4148" fill="white" transform="matrix(1 0 0 -1 0.562012 18.6621)"/>
</clipPath>
</defs>
</svg>
