<svg width="20" height="19" viewBox="0 0 20 19" fill="none" xmlns="http://www.w3.org/2000/svg">
<path d="M8.96905 1.62821L6.9066 5.99251L2.3029 6.69227C2.05737 6.71682 1.85174 6.83959 1.68601 7.06057C1.52028 7.28154 1.44048 7.53321 1.44662 7.81557C1.45276 8.09793 1.55404 8.33732 1.75046 8.53375L5.06512 11.9036L4.2917 16.7467C4.24259 17.0168 4.2917 17.2593 4.43902 17.4741C4.58634 17.689 4.78583 17.8301 5.0375 17.8977C5.28917 17.9652 5.52549 17.9376 5.74647 17.8148L9.88979 15.6603L14.0331 17.8148C14.2786 17.9376 14.5272 17.9652 14.7789 17.8977C15.0306 17.8301 15.2239 17.689 15.359 17.4741C15.494 17.2593 15.537 17.0168 15.4879 16.7467L14.7329 11.9036L18.0291 8.53375C18.2255 8.33732 18.3268 8.10407 18.333 7.83399C18.3391 7.5639 18.2624 7.31837 18.1028 7.0974C17.9432 6.87642 17.7406 6.74138 17.4951 6.69227L12.8914 5.99251L10.8105 1.62821C10.6878 1.38268 10.5036 1.21388 10.2581 1.12181C10.0126 1.02973 9.76702 1.02973 9.52149 1.12181C9.27596 1.21388 9.09181 1.38268 8.96905 1.62821Z" fill="#CCD6DF"/>
</svg>
