<svg width="20" height="19" viewBox="0 0 20 19" fill="none" xmlns="http://www.w3.org/2000/svg">
<path d="M9.18262 1.62821L7.12145 5.99251L2.52063 6.69227C2.27525 6.71682 2.06975 6.83959 1.90412 7.06057C1.73849 7.28154 1.65874 7.53321 1.66488 7.81557C1.67101 8.09793 1.77223 8.33732 1.96853 8.53375L5.28112 11.9036L4.50818 16.7467C4.45911 17.0168 4.50818 17.2593 4.65541 17.4741C4.80264 17.689 5.00201 17.8301 5.25352 17.8977C5.50503 17.9652 5.7412 17.9376 5.96204 17.8148L10.1028 15.6603L14.2435 17.8148C14.4889 17.9376 14.7373 17.9652 14.9888 17.8977C15.2404 17.8301 15.4336 17.689 15.5686 17.4741C15.7035 17.2593 15.7464 17.0168 15.6974 16.7467L14.9428 11.9036L18.237 8.53375C18.4333 8.33732 18.5345 8.10407 18.5407 7.83399C18.5468 7.5639 18.4701 7.31837 18.3106 7.0974C18.1511 6.87642 17.9487 6.74138 17.7033 6.69227L13.1025 5.99251L11.0229 1.62821C10.9003 1.38268 10.7162 1.21388 10.4708 1.12181C10.2255 1.02973 9.98009 1.02973 9.73471 1.12181C9.48934 1.21388 9.3053 1.38268 9.18262 1.62821Z" fill="#CCD6DF"/>
</svg>
