<svg width="19" height="19" viewBox="0 0 19 19" fill="none" xmlns="http://www.w3.org/2000/svg">
<path d="M8.2962 1.62821L6.23374 5.99251L1.63005 6.69227C1.38452 6.71682 1.17889 6.83959 1.01316 7.06057C0.847425 7.28154 0.767628 7.53321 0.773766 7.81557C0.779905 8.09793 0.881186 8.33732 1.07761 8.53375L4.39227 11.9036L3.61885 16.7467C3.56974 17.0168 3.61885 17.2593 3.76617 17.4741C3.91348 17.689 4.11298 17.8301 4.36465 17.8977C4.61631 17.9652 4.85264 17.9376 5.07361 17.8148L9.21694 15.6603L13.3603 17.8148C13.6058 17.9376 13.8544 17.9652 14.1061 17.8977C14.3577 17.8301 14.5511 17.689 14.6861 17.4741C14.8212 17.2593 14.8641 17.0168 14.815 16.7467L14.06 11.9036L17.3563 8.53375C17.5527 8.33732 17.654 8.10407 17.6601 7.83399C17.6662 7.5639 17.5895 7.31837 17.4299 7.0974C17.2703 6.87642 17.0678 6.74138 16.8222 6.69227L12.2185 5.99251L10.1377 1.62821C10.0149 1.38268 9.83076 1.21388 9.58523 1.12181C9.3397 1.02973 9.09417 1.02973 8.84864 1.12181C8.60311 1.21388 8.41896 1.38268 8.2962 1.62821Z" fill="#CCD6DF"/>
</svg>
