<svg width="17" height="17" viewBox="0 0 17 17" fill="none" xmlns="http://www.w3.org/2000/svg">
<path d="M7.82828 1.73902L6.03628 5.53102L2.03628 6.13902C1.82294 6.16036 1.64428 6.26702 1.50028 6.45902C1.35628 6.65102 1.28694 6.86969 1.29228 7.11502C1.29761 7.36036 1.38561 7.56836 1.55628 7.73902L4.43628 10.667L3.76428 14.875C3.72161 15.1097 3.76428 15.3204 3.89228 15.507C4.02028 15.6937 4.19361 15.8164 4.41228 15.875C4.63094 15.9337 4.83628 15.9097 5.02828 15.803L8.62828 13.931L12.2283 15.803C12.4416 15.9097 12.6576 15.9337 12.8763 15.875C13.0949 15.8164 13.2629 15.6937 13.3803 15.507C13.4976 15.3204 13.5349 15.1097 13.4923 14.875L12.8363 10.667L15.7003 7.73902C15.8709 7.56836 15.9589 7.36569 15.9643 7.13102C15.9696 6.89636 15.9029 6.68302 15.7643 6.49102C15.6256 6.29902 15.4496 6.18169 15.2363 6.13902L11.2363 5.53102L9.42828 1.73902C9.32161 1.52569 9.16161 1.37902 8.94828 1.29902C8.73494 1.21902 8.52161 1.21902 8.30828 1.29902C8.09494 1.37902 7.93494 1.52569 7.82828 1.73902Z" fill="#CCD6DF"/>
</svg>
