<svg width="109" height="17" viewBox="0 0 109 17" fill="none" xmlns="http://www.w3.org/2000/svg">
<g clip-path="url(#clip0_28001_20389)">
<g clip-path="url(#clip1_28001_20389)">
<path d="M9.40382 1.07812L11.8628 6.06012L17.3628 6.86013L13.3838 10.7361L14.3228 16.2121L9.40382 13.6291L4.48482 16.2151L5.42382 10.7391L1.44482 6.86412L6.94482 6.06413L9.40382 1.07812Z" fill="#FFCB33" stroke="#FFCB33" stroke-width="0.999944" stroke-linecap="round" stroke-linejoin="round"/>
<path d="M31.9527 1.07812L34.4117 6.06012L39.9117 6.86013L35.9327 10.7361L36.8717 16.2121L31.9527 13.6291L27.0337 16.2151L27.9727 10.7391L23.9937 6.86412L29.4937 6.06413L31.9527 1.07812Z" fill="#FFCB33" stroke="#FFCB33" stroke-width="0.999944" stroke-linecap="round" stroke-linejoin="round"/>
<path d="M54.5005 1.07812L56.9595 6.06012L62.4595 6.86013L58.4805 10.7361L59.4195 16.2121L54.5005 13.6291L49.5815 16.2151L50.5205 10.7391L46.5415 6.86412L52.0415 6.06413L54.5005 1.07812Z" fill="#FFCB33" stroke="#FFCB33" stroke-width="0.999944" stroke-linecap="round" stroke-linejoin="round"/>
<path d="M77.0488 1.07812L79.5078 6.06012L85.0078 6.86013L81.0288 10.7361L81.9678 16.2121L77.0488 13.6291L72.1298 16.2151L73.0688 10.7391L69.0898 6.86412L74.5898 6.06413L77.0488 1.07812Z" fill="#FFCB33" stroke="#FFCB33" stroke-width="0.999944" stroke-linecap="round" stroke-linejoin="round"/>
<path d="M99.5977 1.07812L102.057 6.06012L107.557 6.86013L103.578 10.7361L104.517 16.2121L99.5977 13.6291L94.6787 16.2151L95.6177 10.7391L91.6387 6.86412L97.1387 6.06413L99.5977 1.07812Z" fill="#FFCB33" stroke="#FFCB33" stroke-width="0.999944" stroke-linecap="round" stroke-linejoin="round"/>
</g>
</g>
<defs>
<clipPath id="clip0_28001_20389">
<rect width="107.11" height="16.14" fill="white" transform="translate(0.944824 0.578125)"/>
</clipPath>
<clipPath id="clip1_28001_20389">
<rect width="107.11" height="16.1361" fill="white" transform="translate(0.944824 0.578125)"/>
</clipPath>
</defs>
</svg>
