<svg width="109" height="17" viewBox="0 0 109 17" fill="none" xmlns="http://www.w3.org/2000/svg">
<g clip-path="url(#clip0_28001_20579)">
<g clip-path="url(#clip1_28001_20579)">
<path d="M9.40382 0.878906L11.8628 5.86091L17.3628 6.66091L13.3838 10.5369L14.3228 16.0129L9.40382 13.4299L4.48482 16.0159L5.42382 10.5399L1.44482 6.66491L6.94482 5.86491L9.40382 0.878906Z" fill="#FFCB33" stroke="#FFCB33" stroke-width="0.999944" stroke-linecap="round" stroke-linejoin="round"/>
<path d="M31.9527 0.878906L34.4117 5.86091L39.9117 6.66091L35.9327 10.5369L36.8717 16.0129L31.9527 13.4299L27.0337 16.0159L27.9727 10.5399L23.9937 6.66491L29.4937 5.86491L31.9527 0.878906Z" fill="#FFCB33" stroke="#FFCB33" stroke-width="0.999944" stroke-linecap="round" stroke-linejoin="round"/>
<path d="M54.5005 0.878906L56.9595 5.86091L62.4595 6.66091L58.4805 10.5369L59.4195 16.0129L54.5005 13.4299L49.5815 16.0159L50.5205 10.5399L46.5415 6.66491L52.0415 5.86491L54.5005 0.878906Z" fill="#FFCB33" stroke="#FFCB33" stroke-width="0.999944" stroke-linecap="round" stroke-linejoin="round"/>
<path d="M77.0488 0.878906L79.5078 5.86091L85.0078 6.66091L81.0288 10.5369L81.9678 16.0129L77.0488 13.4299L72.1298 16.0159L73.0688 10.5399L69.0898 6.66491L74.5898 5.86491L77.0488 0.878906Z" fill="#FFCB33" stroke="#FFCB33" stroke-width="0.999944" stroke-linecap="round" stroke-linejoin="round"/>
<path d="M99.5977 0.878906L102.057 5.86091L107.557 6.66091L103.578 10.5369L104.517 16.0129L99.5977 13.4299L94.6787 16.0159L95.6177 10.5399L91.6387 6.66491L97.1387 5.86491L99.5977 0.878906Z" fill="#FFCB33" stroke="#FFCB33" stroke-width="0.999944" stroke-linecap="round" stroke-linejoin="round"/>
</g>
</g>
<defs>
<clipPath id="clip0_28001_20579">
<rect width="107.11" height="16.14" fill="white" transform="translate(0.944824 0.378906)"/>
</clipPath>
<clipPath id="clip1_28001_20579">
<rect width="107.11" height="16.1361" fill="white" transform="translate(0.944824 0.378906)"/>
</clipPath>
</defs>
</svg>
