<svg width="36" height="37" viewBox="0 0 36 37" fill="none" xmlns="http://www.w3.org/2000/svg">
<path d="M20.2 14.9891V10.5391L27.99 18.3291L20.2 26.1191V21.5591C16.27 21.4891 12.1 22.6091 9.33997 25.5591C8.79997 25.9291 7.59997 28.0891 8.11997 26.4491C9.07997 22.1191 11.8 17.9791 15.98 16.1791C17.31 15.5791 18.74 15.1991 20.19 14.9891H20.2Z" fill="white" stroke="black" stroke-opacity="0.15" stroke-width="2"/>
<path d="M20.2 14.9891V10.5391L27.99 18.3291L20.2 26.1191V21.5591C16.27 21.4891 12.1 22.6091 9.33997 25.5591C8.79997 25.9291 7.59997 28.0891 8.11997 26.4491C9.07997 22.1191 11.8 17.9791 15.98 16.1791C17.31 15.5791 18.74 15.1991 20.19 14.9891H20.2Z" fill="white"/>
</svg>
