<svg width="73" height="17" viewBox="0 0 73 17" fill="none" xmlns="http://www.w3.org/2000/svg">
<path d="M12.4684 1.40899C10.5423 1.4336 6.52381 1.5136 5.27458 1.8336C4.35766 2.07975 3.68073 2.81822 3.43458 3.67975C3.00996 5.34129 3.01612 8.7936 3.01612 8.7936C3.01612 8.7936 3.00996 12.2459 3.43458 13.9074C3.67458 14.8305 4.41304 15.5074 5.27458 15.7536C6.92996 16.1844 13.5207 16.1721 13.5207 16.1721C13.5207 16.1721 20.1054 16.1782 21.7669 15.7536C22.69 15.5074 23.3607 14.769 23.6069 13.9074C24.0315 12.2459 24.0253 8.7936 24.0253 8.7936C24.0253 8.7936 24.093 5.34129 23.6069 3.67975C23.3607 2.75668 22.6284 2.07975 21.7669 1.8336C20.1177 1.40283 13.5269 1.40899 13.5269 1.40899C13.5269 1.40899 13.1146 1.40283 12.4746 1.40899H12.4684ZM56.9053 1.96283V15.0582H58.6161L58.8069 14.2151H58.8623C59.0469 14.5228 59.2992 14.7567 59.6069 14.9413C59.9146 15.1259 60.2715 15.1874 60.6407 15.1874C61.3177 15.1874 61.8653 14.8859 62.173 14.209C62.4807 13.5321 62.6715 12.5474 62.6715 11.1936V9.71668C62.6715 8.73206 62.6038 7.93206 62.4807 7.31668C62.3577 6.76899 62.173 6.33822 61.8653 6.03052C61.5577 5.78437 61.1884 5.66745 60.6961 5.66745C60.333 5.66745 59.97 5.78437 59.6623 5.96899C59.3607 6.1536 59.0407 6.46129 58.9177 6.83052V1.96899H56.8992L56.9053 1.96283ZM26.1423 2.44283L28.5423 10.9967L28.653 15.1259H30.69V10.9967L33.0715 2.44283H30.9977L30.1361 6.32591C29.89 7.48899 29.6992 8.28899 29.6377 8.78129H29.5823C29.4592 8.10437 29.2684 7.30437 29.0838 6.32591L28.2407 2.44283H26.1484H26.1423ZM44.3515 2.44283V4.11052H46.4438V15.1259H48.4623V4.11052H50.5546C50.5546 4.11052 50.5546 2.44283 50.4992 2.44283H44.3515ZM11.4346 5.5936L16.9115 8.78129L11.4346 11.9136V5.58745V5.5936ZM66.45 5.64899C65.4038 5.64899 64.6715 6.01206 64.2407 6.62745C63.8161 7.23668 63.6315 8.22745 63.6315 9.64283V11.2367C63.6315 12.5905 63.8161 13.6367 64.2407 14.2521C64.6715 14.929 65.3484 15.2305 66.3946 15.2305C67.2561 15.2305 67.8592 15.0459 68.3515 14.6151C68.7823 14.1844 69.0223 13.5751 69.0223 12.7136V12.4059L67.2377 12.2767C67.2377 12.8921 67.1884 13.2613 67.0654 13.5074C67.0038 13.7536 66.7577 13.889 66.45 13.889C66.2654 13.889 66.0746 13.8213 65.9515 13.6982C65.8284 13.5136 65.7669 13.3351 65.7054 13.0274C65.6438 12.7198 65.65 12.2828 65.65 11.6674V11.1874L69.1638 11.1321V9.51975C69.1638 8.53514 69.1023 7.80899 68.9177 7.25514C68.7946 6.70745 68.4807 6.27668 68.1115 6.03052C67.6807 5.78437 67.2007 5.66745 66.4623 5.66745L66.45 5.64899ZM35.3792 5.70437C34.7084 5.70437 34.1423 5.81514 33.7115 6.12283C33.2807 6.36899 32.973 6.81206 32.7946 7.42745C32.61 8.04283 32.4869 8.82437 32.4869 9.80899V11.169C32.4869 12.0921 32.5484 12.8798 32.733 13.4951C32.8561 14.049 33.1638 14.4921 33.5946 14.7998C34.0192 15.1074 34.6469 15.2182 35.3238 15.2798C36.0561 15.2798 36.6038 15.1074 37.0346 14.8613C37.4592 14.6151 37.7053 14.1905 37.9515 13.5751C38.1915 12.9598 38.253 12.1598 38.253 11.1751V9.81514C38.253 8.83052 38.13 8.04899 37.9515 7.4336C37.7669 6.88591 37.4592 6.43668 37.0346 6.12898C36.6038 5.82129 36.0623 5.71052 35.3853 5.71052L35.3792 5.70437ZM42.8746 5.75975V13.0828C42.813 13.2674 42.6961 13.3782 42.5115 13.5013C42.3884 13.6244 42.1977 13.6921 42.013 13.6921C41.8284 13.6921 41.6561 13.6305 41.5946 13.4459C41.533 13.2613 41.4838 13.0151 41.4838 12.5844V5.82129H39.3915V12.7198C39.3915 13.5813 39.5023 14.1905 39.81 14.6213C40.1115 15.0521 40.5546 15.2367 41.17 15.2367C42.0315 15.2367 42.6961 14.8121 43.1269 13.9505H43.1823L43.373 15.0459H44.9669V5.82129C44.9669 5.82129 42.8746 5.82129 42.8746 5.76591V5.75975ZM53.5269 5.75975V13.0828C53.4654 13.2674 53.3484 13.3782 53.1638 13.5013C53.0407 13.6244 52.85 13.6921 52.6654 13.6921C52.4807 13.6921 52.3084 13.6305 52.2469 13.4459C52.1854 13.2613 52.1177 13.0151 52.1177 12.5844V5.82129H50.0253V12.7198C50.0253 13.5813 50.1546 14.1905 50.4623 14.6213C50.77 15.0521 51.1884 15.2367 51.8038 15.2367C52.6592 15.2367 53.3484 14.8121 53.7792 13.9505H53.8346L54.0069 15.0459H55.6192V5.82129C55.6192 5.82129 53.5269 5.82129 53.5269 5.76591V5.75975ZM66.3884 7.04591C66.6346 7.04591 66.7454 7.1136 66.8684 7.23668C66.9915 7.42129 67.053 7.59975 67.1146 7.90745C67.1761 8.21514 67.17 8.65206 67.17 9.26745V9.93822H65.6315V9.26745C65.6315 8.65206 65.6315 8.21514 65.6869 7.90745C65.6869 7.66129 65.7546 7.41514 65.8777 7.29206C66.0007 7.10745 66.1915 7.04591 66.3761 7.04591H66.3884ZM35.3177 7.11975C35.6254 7.11975 35.81 7.23052 35.933 7.53822C36.05 7.84591 36.1054 8.33822 36.1054 9.01514V11.8951C36.1054 12.5721 36.0561 13.0644 35.933 13.3721C35.81 13.6798 35.6254 13.7905 35.3177 13.7905C35.01 13.7905 34.8315 13.6798 34.7084 13.3721C34.5854 13.0644 34.5177 12.5721 34.5177 11.8951V9.01514C34.5177 8.33822 34.5854 7.84591 34.7084 7.53822C34.8315 7.23052 35.01 7.11975 35.3177 7.11975ZM59.7361 7.17514C59.9207 7.17514 60.1115 7.23668 60.2346 7.42129C60.3577 7.60591 60.4007 7.8336 60.4623 8.26437C60.5238 8.6336 60.5361 9.1936 60.5361 9.93206L60.5915 11.1013C60.5915 11.7782 60.5915 12.3259 60.5361 12.6951C60.4746 13.0644 60.4192 13.3598 60.2346 13.4828C60.1115 13.6674 59.9269 13.729 59.6807 13.729C59.4961 13.729 59.3669 13.6798 59.1823 13.6182C59.0592 13.5567 58.9423 13.4398 58.8192 13.2551V8.02437C58.8807 7.77822 58.9977 7.5936 59.1823 7.40899C59.3669 7.22437 59.5515 7.16283 59.7361 7.16283V7.17514Z" fill="white" stroke="black" stroke-opacity="0.15" stroke-width="1.23077"/>
<path d="M12.4684 1.40899C10.5423 1.4336 6.52381 1.5136 5.27458 1.8336C4.35766 2.07975 3.68073 2.81822 3.43458 3.67975C3.00996 5.34129 3.01612 8.7936 3.01612 8.7936C3.01612 8.7936 3.00996 12.2459 3.43458 13.9074C3.67458 14.8305 4.41304 15.5074 5.27458 15.7536C6.92996 16.1844 13.5207 16.1721 13.5207 16.1721C13.5207 16.1721 20.1054 16.1782 21.7669 15.7536C22.69 15.5074 23.3607 14.769 23.6069 13.9074C24.0315 12.2459 24.0253 8.7936 24.0253 8.7936C24.0253 8.7936 24.093 5.34129 23.6069 3.67975C23.3607 2.75668 22.6284 2.07975 21.7669 1.8336C20.1177 1.40283 13.5269 1.40899 13.5269 1.40899C13.5269 1.40899 13.1146 1.40283 12.4746 1.40899H12.4684ZM56.9053 1.96283V15.0582H58.6161L58.8069 14.2151H58.8623C59.0469 14.5228 59.2992 14.7567 59.6069 14.9413C59.9146 15.1259 60.2715 15.1874 60.6407 15.1874C61.3177 15.1874 61.8653 14.8859 62.173 14.209C62.4807 13.5321 62.6715 12.5474 62.6715 11.1936V9.71668C62.6715 8.73206 62.6038 7.93206 62.4807 7.31668C62.3577 6.76899 62.173 6.33822 61.8653 6.03052C61.5577 5.78437 61.1884 5.66745 60.6961 5.66745C60.333 5.66745 59.97 5.78437 59.6623 5.96899C59.3607 6.1536 59.0407 6.46129 58.9177 6.83052V1.96899H56.8992L56.9053 1.96283ZM26.1423 2.44283L28.5423 10.9967L28.653 15.1259H30.69V10.9967L33.0715 2.44283H30.9977L30.1361 6.32591C29.89 7.48899 29.6992 8.28899 29.6377 8.78129H29.5823C29.4592 8.10437 29.2684 7.30437 29.0838 6.32591L28.2407 2.44283H26.1484H26.1423ZM44.3515 2.44283V4.11052H46.4438V15.1259H48.4623V4.11052H50.5546C50.5546 4.11052 50.5546 2.44283 50.4992 2.44283H44.3515ZM11.4346 5.5936L16.9115 8.78129L11.4346 11.9136V5.58745V5.5936ZM66.45 5.64899C65.4038 5.64899 64.6715 6.01206 64.2407 6.62745C63.8161 7.23668 63.6315 8.22745 63.6315 9.64283V11.2367C63.6315 12.5905 63.8161 13.6367 64.2407 14.2521C64.6715 14.929 65.3484 15.2305 66.3946 15.2305C67.2561 15.2305 67.8592 15.0459 68.3515 14.6151C68.7823 14.1844 69.0223 13.5751 69.0223 12.7136V12.4059L67.2377 12.2767C67.2377 12.8921 67.1884 13.2613 67.0654 13.5074C67.0038 13.7536 66.7577 13.889 66.45 13.889C66.2654 13.889 66.0746 13.8213 65.9515 13.6982C65.8284 13.5136 65.7669 13.3351 65.7054 13.0274C65.6438 12.7198 65.65 12.2828 65.65 11.6674V11.1874L69.1638 11.1321V9.51975C69.1638 8.53514 69.1023 7.80899 68.9177 7.25514C68.7946 6.70745 68.4807 6.27668 68.1115 6.03052C67.6807 5.78437 67.2007 5.66745 66.4623 5.66745L66.45 5.64899ZM35.3792 5.70437C34.7084 5.70437 34.1423 5.81514 33.7115 6.12283C33.2807 6.36899 32.973 6.81206 32.7946 7.42745C32.61 8.04283 32.4869 8.82437 32.4869 9.80899V11.169C32.4869 12.0921 32.5484 12.8798 32.733 13.4951C32.8561 14.049 33.1638 14.4921 33.5946 14.7998C34.0192 15.1074 34.6469 15.2182 35.3238 15.2798C36.0561 15.2798 36.6038 15.1074 37.0346 14.8613C37.4592 14.6151 37.7053 14.1905 37.9515 13.5751C38.1915 12.9598 38.253 12.1598 38.253 11.1751V9.81514C38.253 8.83052 38.13 8.04899 37.9515 7.4336C37.7669 6.88591 37.4592 6.43668 37.0346 6.12898C36.6038 5.82129 36.0623 5.71052 35.3853 5.71052L35.3792 5.70437ZM42.8746 5.75975V13.0828C42.813 13.2674 42.6961 13.3782 42.5115 13.5013C42.3884 13.6244 42.1977 13.6921 42.013 13.6921C41.8284 13.6921 41.6561 13.6305 41.5946 13.4459C41.533 13.2613 41.4838 13.0151 41.4838 12.5844V5.82129H39.3915V12.7198C39.3915 13.5813 39.5023 14.1905 39.81 14.6213C40.1115 15.0521 40.5546 15.2367 41.17 15.2367C42.0315 15.2367 42.6961 14.8121 43.1269 13.9505H43.1823L43.373 15.0459H44.9669V5.82129C44.9669 5.82129 42.8746 5.82129 42.8746 5.76591V5.75975ZM53.5269 5.75975V13.0828C53.4654 13.2674 53.3484 13.3782 53.1638 13.5013C53.0407 13.6244 52.85 13.6921 52.6654 13.6921C52.4807 13.6921 52.3084 13.6305 52.2469 13.4459C52.1854 13.2613 52.1177 13.0151 52.1177 12.5844V5.82129H50.0253V12.7198C50.0253 13.5813 50.1546 14.1905 50.4623 14.6213C50.77 15.0521 51.1884 15.2367 51.8038 15.2367C52.6592 15.2367 53.3484 14.8121 53.7792 13.9505H53.8346L54.0069 15.0459H55.6192V5.82129C55.6192 5.82129 53.5269 5.82129 53.5269 5.76591V5.75975ZM66.3884 7.04591C66.6346 7.04591 66.7454 7.1136 66.8684 7.23668C66.9915 7.42129 67.053 7.59975 67.1146 7.90745C67.1761 8.21514 67.17 8.65206 67.17 9.26745V9.93822H65.6315V9.26745C65.6315 8.65206 65.6315 8.21514 65.6869 7.90745C65.6869 7.66129 65.7546 7.41514 65.8777 7.29206C66.0007 7.10745 66.1915 7.04591 66.3761 7.04591H66.3884ZM35.3177 7.11975C35.6254 7.11975 35.81 7.23052 35.933 7.53822C36.05 7.84591 36.1054 8.33822 36.1054 9.01514V11.8951C36.1054 12.5721 36.0561 13.0644 35.933 13.3721C35.81 13.6798 35.6254 13.7905 35.3177 13.7905C35.01 13.7905 34.8315 13.6798 34.7084 13.3721C34.5854 13.0644 34.5177 12.5721 34.5177 11.8951V9.01514C34.5177 8.33822 34.5854 7.84591 34.7084 7.53822C34.8315 7.23052 35.01 7.11975 35.3177 7.11975ZM59.7361 7.17514C59.9207 7.17514 60.1115 7.23668 60.2346 7.42129C60.3577 7.60591 60.4007 7.8336 60.4623 8.26437C60.5238 8.6336 60.5361 9.1936 60.5361 9.93206L60.5915 11.1013C60.5915 11.7782 60.5915 12.3259 60.5361 12.6951C60.4746 13.0644 60.4192 13.3598 60.2346 13.4828C60.1115 13.6674 59.9269 13.729 59.6807 13.729C59.4961 13.729 59.3669 13.6798 59.1823 13.6182C59.0592 13.5567 58.9423 13.4398 58.8192 13.2551V8.02437C58.8807 7.77822 58.9977 7.5936 59.1823 7.40899C59.3669 7.22437 59.5515 7.16283 59.7361 7.16283V7.17514Z" fill="white"/>
</svg>
