<svg width="41" height="32" viewBox="0 0 41 32" fill="none" xmlns="http://www.w3.org/2000/svg">
<path fill-rule="evenodd" clip-rule="evenodd" d="M19.9545 0.118838C18.579 0.26422 17.6213 0.547285 16.2018 1.22788C13.8326 2.36387 11.9538 4.17127 10.8158 6.40922L10.5472 6.93748L22.618 6.90583L34.6889 6.87417L35.7787 3.52208C36.3781 1.67843 36.8695 0.128026 36.8707 0.0768755C36.8737 -0.0488899 21.1727 -0.0100308 19.9545 0.118838ZM1.08335 11.7049C0.487543 13.513 0 15.0513 0 15.1234C0 15.2145 4.4923 15.2544 14.774 15.2544C22.8997 15.2544 29.548 15.2102 29.548 15.1561C29.548 14.8786 28.1753 12.8853 27.4678 12.1352C25.9673 10.5446 24.2894 9.50519 22.134 8.83129L21.0437 8.49037L11.6052 8.45387L2.16682 8.41737L1.08335 11.7049ZM10.9479 17.4979C12.6386 20.5917 15.8437 22.8557 19.3676 23.4455C19.9113 23.5365 23.0834 23.5692 29.0902 23.5456L38.0057 23.5105L39.1139 20.1584C39.7235 18.3147 40.2228 16.7923 40.2236 16.7752C40.2244 16.7582 33.5451 16.7442 25.3805 16.7442H10.5361L10.9479 17.4979ZM4.38317 28.4836C3.53037 31.0458 3.28554 31.9206 3.40808 31.9677C3.49822 32.0022 7.39123 32.0104 12.0595 31.9859L20.5471 31.9415L21.7279 31.6204C24.2596 30.932 26.2366 29.7028 27.8514 27.8132C28.4072 27.1629 29.548 25.3774 29.548 25.1581C29.548 25.1054 24.1421 25.0624 17.535 25.0624H5.52188L4.38317 28.4836Z" fill="black"/>
</svg>
