<svg width="22" height="23" viewBox="0 0 22 23" fill="none" xmlns="http://www.w3.org/2000/svg">
<g clip-path="url(#clip0_28001_21085)">
<g clip-path="url(#clip1_28001_21085)">
<g clip-path="url(#clip2_28001_21085)">
<path fill-rule="evenodd" clip-rule="evenodd" d="M11 20.4445C15.8601 20.4445 19.8 16.5046 19.8 11.6445C19.8 6.78442 15.8601 2.84453 11 2.84453C6.13989 2.84453 2.2 6.78442 2.2 11.6445C2.2 16.5046 6.13989 20.4445 11 20.4445ZM11 22.6445C17.0751 22.6445 22 17.7196 22 11.6445C22 5.5694 17.0751 0.644531 11 0.644531C4.92487 0.644531 0 5.5694 0 11.6445C0 17.7196 4.92487 22.6445 11 22.6445Z" fill="#18B394"/>
<path fill-rule="evenodd" clip-rule="evenodd" d="M5.72208 10.3416C6.15167 9.91199 6.84815 9.91199 7.27772 10.3416L9.9509 13.0147L14.6474 8.31828C15.0769 7.8887 15.7734 7.8887 16.203 8.31828C16.6326 8.74785 16.6326 9.44433 16.203 9.87391L9.9509 16.126L5.72208 11.8972C5.2925 11.4676 5.29251 10.7711 5.72208 10.3416Z" fill="#18B394"/>
</g>
</g>
</g>
<defs>
<clipPath id="clip0_28001_21085">
<rect width="22" height="22" fill="white" transform="translate(0 0.644531)"/>
</clipPath>
<clipPath id="clip1_28001_21085">
<rect width="22" height="22" fill="white" transform="translate(0 0.644531)"/>
</clipPath>
<clipPath id="clip2_28001_21085">
<rect width="22" height="22" fill="white" transform="translate(0 0.644531)"/>
</clipPath>
</defs>
</svg>
